<?xml version="1.0" standalone="no"?>
<!DOCTYPE svg PUBLIC "-//W3C//DTD SVG 1.1//EN" "http://www.w3.org/Graphics/SVG/1.1/DTD/svg11.dtd" >
<svg xmlns="http://www.w3.org/2000/svg">
<metadata></metadata>
<defs>
<font id="swiss924_btregular" horiz-adv-x="692" >
<font-face units-per-em="2048" ascent="1638" descent="-410" />
<missing-glyph horiz-adv-x="346" />
<glyph horiz-adv-x="2048" />
<glyph horiz-adv-x="2048" />
<glyph unicode="&#xd;" horiz-adv-x="346" />
<glyph unicode=" "  horiz-adv-x="346" />
<glyph unicode="&#x09;" horiz-adv-x="346" />
<glyph unicode="&#xa0;" horiz-adv-x="346" />
<glyph unicode="!" horiz-adv-x="403" d="M72 1602h260l-66 -1233h-129zM84 0v256h235v-256h-235z" />
<glyph unicode="&#x22;" horiz-adv-x="643" d="M86 879v557h164v-557h-164zM395 879v557h164v-557h-164z" />
<glyph unicode="#" horiz-adv-x="1575" d="M70 428l61 172h297l90 252h-315l61 172h316l155 436h191l-154 -436h250l156 436h190l-154 -436h291l-59 -172h-293l-90 -252h309l-61 -172h-307l-156 -434h-191l156 434h-252l-158 -434h-190l156 434h-299zM618 598h256l91 254h-256z" />
<glyph unicode="$" d="M57 332v168h217v-201q0 -79 15 -103t53 -24t53 25.5t15 101.5v107q0 107 -142 290q-50 64 -75 101q-72 101 -99.5 176t-27.5 160v120q0 117 49.5 196.5t140.5 109.5v143h57l1 -139q5 1 11 1.5t19 0.5t19 -0.5t12 -1.5v139h57v-143q94 -13 145.5 -98.5t51.5 -229.5v-150 h-215v174q0 70 -15.5 95.5t-52.5 25.5q-34 0 -48.5 -26.5t-14.5 -94.5v-100q0 -93 155 -297q60 -78 92 -123q53 -75 79 -148t26 -149v-114q0 -141 -52 -226t-151 -108v-166h-57v157q-5 0 -11.5 -0.5t-19.5 -0.5t-19.5 0.5t-11.5 0.5v-157h-57v165q-102 10 -150.5 93.5 t-48.5 249.5z" />
<glyph unicode="%" horiz-adv-x="1190" d="M47 1055v286q0 113 54 168.5t163 55.5q111 0 165 -55.5t54 -168.5v-286q0 -113 -54 -168.5t-165 -55.5t-164 54.5t-53 169.5zM221 1055q0 -41 9.5 -55.5t33.5 -14.5q25 0 34 13.5t9 56.5v284q0 44 -8.5 57t-34.5 13q-25 0 -34 -14t-9 -56v-284zM309 -18l441 1583h137 l-441 -1583h-137zM707 205v287q0 111 54.5 167t164.5 56q109 0 163 -55.5t54 -167.5v-287q0 -113 -54 -168t-163 -55q-112 0 -165.5 54.5t-53.5 168.5zM883 205q0 -42 9 -57t34 -15q24 0 33.5 14t9.5 58v284q0 43 -9 56.5t-34 13.5t-34 -14.5t-9 -55.5v-284z" />
<glyph unicode="&#x26;" horiz-adv-x="883" d="M25 340q0 147 63 276.5t188 239.5q-61 96 -91.5 186.5t-30.5 174.5q0 148 84.5 239.5t220.5 91.5q121 0 197.5 -83t76.5 -214q0 -98 -52 -199.5t-167 -224.5l158 -366l57 80l135 -144l-108 -137q12 -24 33.5 -38.5t54.5 -20.5v-219q-76 1 -134 29t-98 83 q-56 -58 -122 -85t-148 -27q-139 0 -228 99.5t-89 258.5zM258 362q0 -82 36 -129t99 -47q38 0 70 20t61 62l-162 369q-52 -68 -78 -136t-26 -139zM365 1241q0 -35 15 -81.5t56 -133.5q47 74 69.5 129.5t22.5 93.5q0 51 -20.5 79t-56.5 28q-39 0 -62.5 -31t-23.5 -84z" />
<glyph unicode="'" horiz-adv-x="334" d="M86 879v557h164v-557h-164z" />
<glyph unicode="(" horiz-adv-x="494" d="M109 254v917q0 211 79 316t256 133v-156q-65 -22 -90.5 -69t-25.5 -156v-1063q0 -108 25 -154.5t91 -68.5v-150q-177 29 -256 134.5t-79 316.5z" />
<glyph unicode=")" horiz-adv-x="494" d="M49 -47q66 23 91.5 70t25.5 153v1063q0 107 -25.5 155t-91.5 70v156q177 -28 255.5 -133t78.5 -316v-917q0 -212 -78.5 -317t-255.5 -134v150z" />
<glyph unicode="*" horiz-adv-x="674" d="M43 1337l45 138l180 -66v193h135v-193l181 64l45 -138l-189 -49l129 -164l-116 -84l-117 170l-119 -168l-115 80l129 166z" />
<glyph unicode="+" horiz-adv-x="1706" d="M254 528v166h514v527h170v-527h514v-166h-514v-528h-170v528h-514z" />
<glyph unicode="," horiz-adv-x="346" d="M51 0v262h244v-213q0 -67 -24.5 -125.5t-77.5 -120.5h-125q47 58 71 106t26 91h-114z" />
<glyph unicode="-" horiz-adv-x="446" d="M55 559v197h336v-197h-336z" />
<glyph unicode="." horiz-adv-x="346" d="M51 0v262h244v-262h-244z" />
<glyph unicode="/" horiz-adv-x="471" d="M-47 -190l360 1812h160l-362 -1812h-158z" />
<glyph unicode="0" d="M59 344v858q0 189 69 276t218 87q151 0 219 -85.5t68 -277.5v-858q0 -189 -69 -275.5t-218 -86.5q-150 0 -218.5 85.5t-68.5 276.5zM295 291q0 -66 11.5 -88.5t39.5 -22.5q29 0 40 22t11 89v971q0 66 -11.5 88t-39.5 22q-29 0 -40 -22t-11 -88v-971z" />
<glyph unicode="1" d="M96 1083v269q65 57 111.5 104t81.5 90h192v-1546h-225v1272q-36 -54 -76 -101t-84 -88z" />
<glyph unicode="2" d="M47 0v221l275 644l2 5q73 172 73 258v113q0 78 -13.5 104.5t-47.5 26.5t-48 -26.5t-14 -104.5v-170h-221v166q0 161 74 244.5t217 83.5q133 0 212 -78t79 -209v-90q0 -70 -18.5 -150t-53.5 -161l-284 -670h331v-207h-563z" />
<glyph unicode="3" d="M51 307v238h228v-244q0 -74 12.5 -98.5t44.5 -24.5t44.5 24t12.5 99v346q0 51 -23 70.5t-83 19.5q-5 0 -17 -1t-18 -1v178q8 -1 16.5 -1.5t24.5 -0.5q59 0 80.5 22.5t21.5 86.5v225q0 74 -13 99.5t-46 25.5q-31 0 -43 -24.5t-12 -100.5v-182h-222v199q0 147 72.5 225 t210.5 78q136 0 209.5 -79t73.5 -224v-191q0 -111 -29 -167.5t-94 -78.5q68 -9 97.5 -56t29.5 -148v-304q0 -168 -72 -251.5t-217 -83.5q-142 0 -215.5 82.5t-73.5 242.5z" />
<glyph unicode="4" d="M37 264v248l270 1034h264v-1077h82v-205h-82v-264h-225v264h-309zM164 469h182v711z" />
<glyph unicode="5" d="M59 305v240h230v-248q0 -67 12 -92t41 -25q30 0 41.5 23t11.5 94v496q0 55 -14.5 77.5t-48.5 22.5q-37 0 -54.5 -26t-17.5 -81h-186l28 760h504v-207h-321l-15 -307q39 29 72.5 42t69.5 13q100 0 157.5 -66t57.5 -183v-533q0 -155 -74.5 -239t-210.5 -84q-141 0 -212 81 t-71 242z" />
<glyph unicode="6" d="M61 344v858q0 190 68 276.5t217 86.5q133 0 210 -77.5t77 -211.5v-131h-223v96q0 77 -13 102t-45 25t-45.5 -27t-13.5 -100v-276q36 30 72.5 44.5t76.5 14.5q93 0 142 -67t49 -193v-420q0 -189 -69 -275.5t-218 -86.5q-150 0 -217.5 85t-67.5 277zM293 299 q0 -68 12 -92.5t41 -24.5q30 0 41.5 23t11.5 94v424q0 70 -11.5 93.5t-41.5 23.5q-29 0 -41 -24.5t-12 -92.5v-424z" />
<glyph unicode="7" d="M23 1339v207h606v-211l-318 -1335h-231l321 1339h-378z" />
<glyph unicode="8" d="M61 342v291q0 140 31.5 196t112.5 82q-73 15 -105 65.5t-32 153.5v123q0 152 71 232t205 80q135 0 204.5 -79t69.5 -233v-123q0 -103 -29.5 -152t-101.5 -67q82 -26 113 -82t31 -196v-291q0 -189 -68 -274.5t-217 -85.5t-217 85.5t-68 274.5zM281 301q0 -65 15.5 -94 t49.5 -29q32 0 44.5 25t12.5 98v385q0 75 -12.5 99t-44.5 24q-35 0 -50 -28.5t-15 -94.5v-385zM289 1106q0 -70 12 -93.5t41 -23.5q30 0 41.5 22t11.5 95v151q0 72 -12.5 95.5t-42.5 23.5q-29 0 -40 -22t-11 -97v-151z" />
<glyph unicode="9" d="M61 279v120h224v-96q0 -77 12.5 -102t44.5 -25q33 0 46 27.5t13 99.5v279q-37 -32 -73.5 -47t-75.5 -15q-93 0 -142 67t-49 193v420q0 191 68.5 278t216.5 87q150 0 218.5 -86.5t68.5 -278.5v-856q0 -189 -69 -275.5t-218 -86.5q-137 0 -211 77t-74 220zM295 823 q0 -73 12 -95.5t41 -22.5t41 24.5t12 93.5v424q0 68 -11.5 92.5t-41.5 24.5t-41.5 -23t-11.5 -94v-424z" />
<glyph unicode=":" horiz-adv-x="393" d="M76 0v262h241v-262h-241zM76 940v262h241v-262h-241z" />
<glyph unicode=";" horiz-adv-x="393" d="M76 0v262h241v-213q0 -68 -23.5 -126.5t-76.5 -119.5h-125q46 56 69.5 104t26.5 93h-112zM76 940v262h241v-262h-241z" />
<glyph unicode="&#x3c;" horiz-adv-x="1706" d="M264 530v160l1178 486v-185l-934 -381l934 -381v-182z" />
<glyph unicode="=" horiz-adv-x="1706" d="M254 322v165h1198v-165h-1198zM254 733v168h1198v-168h-1198z" />
<glyph unicode="&#x3e;" horiz-adv-x="1706" d="M264 47v182l934 381l-934 381v185l1178 -486v-160z" />
<glyph unicode="?" horiz-adv-x="664" d="M35 1194v106q0 157 73 239.5t211 82.5q136 0 210.5 -74.5t74.5 -208.5v-71q0 -154 -123 -370q-32 -58 -47 -87q-33 -65 -49 -173t-16 -267h-123v362q0 68 13.5 131t47.5 142t48 132.5t14 96.5v70q0 84 -12 106.5t-44 22.5q-30 0 -42.5 -27t-12.5 -102v-111h-223zM188 0 v256h236v-256h-236z" />
<glyph unicode="@" horiz-adv-x="2048" d="M98 522q0 165 52 313.5t153 272.5q147 179 353.5 272t459.5 93q166 0 315 -45.5t255 -127.5q132 -102 198 -235.5t66 -300.5q0 -162 -65 -302t-185 -237q-69 -55 -150 -83.5t-168 -28.5q-106 0 -157 40.5t-51 125.5v4q-55 -87 -128 -127.5t-176 -40.5q-152 0 -232.5 86.5 t-80.5 249.5q0 233 138 395t333 162q89 0 149 -34.5t99 -107.5l55 107h154l-148 -586q-1 -5 -2 -12q-6 -28 -6 -37q0 -38 26.5 -61t69.5 -23q51 0 107.5 30.5t105.5 84.5q72 76 110 177.5t38 215.5q0 253 -187 411t-489 158q-138 0 -256 -31t-215 -94q-181 -113 -279 -291 t-98 -395q0 -312 209.5 -499t558.5 -187q166 0 323.5 49t291.5 142l67 -99q-149 -113 -318.5 -170t-355.5 -57q-192 0 -351 48t-281 142q-155 118 -231.5 275.5t-76.5 357.5zM741 444q0 -98 45.5 -151t128.5 -53q90 0 163.5 66.5t99.5 172.5l55 228q-14 84 -61.5 130 t-122.5 46q-127 0 -217.5 -128.5t-90.5 -310.5z" />
<glyph unicode="A" horiz-adv-x="768" d="M20 0l185 1602h358l185 -1602h-263l-12 201h-178l-12 -201h-263zM311 389h146l-35 483q-5 56 -24 350q-9 139 -15 221q-15 -239 -24.5 -382t-12.5 -189z" />
<glyph unicode="B" horiz-adv-x="764" d="M66 0v1602h356q146 0 207 -58.5t61 -195.5v-203q0 -108 -50.5 -162.5t-159.5 -64.5q118 -10 172.5 -64t54.5 -164v-420q0 -133 -71.5 -201.5t-211.5 -68.5h-358zM313 195q6 0 14.5 -1t12.5 -1q60 0 85.5 36.5t25.5 124.5v320q0 82 -25 112.5t-90 30.5h-23v-622zM313 1014 q6 0 14.5 -1t12.5 -1q60 0 85.5 37.5t25.5 126.5v90q0 82 -25 112.5t-90 30.5h-23v-395z" />
<glyph unicode="C" horiz-adv-x="750" d="M61 358v887q0 189 80.5 283t241.5 94q162 0 243 -94.5t81 -282.5v-170h-252v234q0 68 -16 91t-56 23t-55 -21t-15 -93v-1008q0 -72 15 -93.5t55 -21.5t56 23.5t16 91.5v244h252v-187q0 -188 -81 -282t-243 -94q-161 0 -241.5 93.5t-80.5 282.5z" />
<glyph unicode="D" horiz-adv-x="768" d="M66 0v1602h268q223 0 298 -72t75 -279v-874q0 -214 -73.5 -295.5t-260.5 -81.5h-307zM317 203h23q63 0 89 35.5t26 126.5v895q0 82 -25 112.5t-90 30.5h-23v-1200z" />
<glyph unicode="E" horiz-adv-x="678" d="M66 0v1602h565v-203h-314v-406h314v-205h-314v-579h314v-209h-565z" />
<glyph unicode="F" horiz-adv-x="649" d="M63 0v1602h566v-203h-314v-406h314v-205h-314v-788h-252z" />
<glyph unicode="G" horiz-adv-x="768" d="M61 358v887q0 189 80.5 283t241.5 94q156 0 239 -90.5t83 -261.5v-154h-250v176q0 84 -16 107.5t-56 23.5t-55 -21t-15 -93v-1008q0 -72 15 -93.5t55 -21.5t56 24t16 107v29v307h-84v201h334v-502q0 -186 -80.5 -278t-241.5 -92t-241.5 93.5t-80.5 282.5z" />
<glyph unicode="H" horiz-adv-x="764" d="M66 2v1600h251v-590h129v590h250v-1600h-250v801h-129v-801h-251z" />
<glyph unicode="I" horiz-adv-x="403" d="M76 0v1602h252v-1602h-252z" />
<glyph unicode="J" horiz-adv-x="508" d="M0 2v223q24 -12 44.5 -18t39.5 -6q54 0 74 34.5t20 180.5v20v1166h252v-1262q0 -192 -70.5 -275t-230.5 -83q-31 0 -63 5t-66 15z" />
<glyph unicode="K" horiz-adv-x="739" d="M66 0v1602h247v-705l170 705h252l-213 -699l213 -903h-256l-166 834v-834h-247z" />
<glyph unicode="L" horiz-adv-x="616" d="M80 0v1602h252v-1391h286v-211h-538z" />
<glyph unicode="M" horiz-adv-x="999" d="M66 0v1602h247l131 -648q12 -57 26 -147t30 -215q11 83 25.5 166.5t37.5 193.5l131 650h240v-1602h-223v750q0 64 3.5 148.5t10.5 182.5l-193 -1081h-65l-193 1081q8 -98 11.5 -182t3.5 -149v-750h-223z" />
<glyph unicode="N" horiz-adv-x="758" d="M66 0v1602h206l213 -1057q-9 171 -13.5 285.5t-4.5 170.5v601h225v-1602h-215l-205 1042q10 -124 14.5 -228.5t4.5 -192.5v-621h-225z" />
<glyph unicode="O" horiz-adv-x="768" d="M61 358v887q0 189 80.5 283t241.5 94q162 0 243 -94.5t81 -282.5v-887q0 -188 -81 -282t-243 -94q-161 0 -241.5 93.5t-80.5 282.5zM313 301q0 -72 15 -93.5t55 -21.5t56 23.5t16 91.5v1008q0 68 -16 91t-56 23t-55 -21t-15 -93v-1008z" />
<glyph unicode="P" horiz-adv-x="739" d="M76 0v1602h350q156 0 223.5 -62.5t67.5 -206.5v-256q0 -160 -71 -231.5t-230 -71.5h-88v-774h-252zM328 971h22q63 0 89 35.5t26 126.5v133q0 81 -25 111t-90 30h-22v-436z" />
<glyph unicode="Q" horiz-adv-x="768" d="M61 358v887q0 189 80.5 283t241.5 94q162 0 243 -94.5t81 -282.5v-887q0 -110 -25.5 -185.5t-77.5 -119.5l94 -143l-155 -92l-109 166q-7 0 -20 -1t-19 -1q-170 0 -252 92t-82 284zM313 301q0 -72 15 -93.5t55 -21.5t56 23.5t16 91.5v1008q0 68 -16 91t-56 23t-55 -21 t-15 -93v-1008z" />
<glyph unicode="R" horiz-adv-x="758" d="M66 0v1602h362q156 0 216.5 -63.5t60.5 -229.5v-197q0 -137 -38 -204.5t-120 -78.5l198 -829h-253l-164 848h-15v-848h-247zM313 958h27q68 0 94.5 35t26.5 127v146q0 80 -26.5 110.5t-96.5 30.5h-25v-449z" />
<glyph unicode="S" horiz-adv-x="772" d="M47 348v174h250v-209q0 -79 17.5 -104t62.5 -25t62.5 25.5t17.5 103.5v111q0 29 -7.5 60.5t-21.5 64.5q-18 41 -113 148q-67 76 -104 122q-90 114 -122 191t-32 164v124q0 153 88.5 237.5t247.5 84.5q160 0 239 -86t79 -260v-193h-250v219q0 73 -17 98t-61 25 q-42 0 -59 -24.5t-17 -98.5v-108q0 -93 166 -281q71 -80 109 -127q69 -87 102 -166t33 -159v-119q0 -172 -88.5 -265t-251.5 -93q-178 0 -254 83.5t-76 282.5z" />
<glyph unicode="T" horiz-adv-x="631" d="M12 1393v209h606v-209h-178v-1393h-252v1393h-176z" />
<glyph unicode="U" horiz-adv-x="772" d="M63 358v1244h252v-1301q0 -70 16 -92.5t56 -22.5q39 0 54.5 22.5t15.5 92.5v1301h252v-1244q0 -189 -80.5 -282.5t-241.5 -93.5q-162 0 -243 94t-81 282z" />
<glyph unicode="V" horiz-adv-x="739" d="M0 1602h264l105 -1250l104 1250h264l-239 -1602h-258z" />
<glyph unicode="W" horiz-adv-x="1100" d="M10 1602h254l80 -1170l119 1170h182l119 -1170l74 1170h249l-215 -1602h-198l-119 1196l-139 -1196h-193z" />
<glyph unicode="X" horiz-adv-x="743" d="M2 0l227 872l-202 730h272l86 -611l72 611h266l-205 -730l223 -872h-272l-98 741l-101 -741h-268z" />
<glyph unicode="Y" d="M-20 1602h260l104 -678l111 678h256l-248 -912v-690h-252v690z" />
<glyph unicode="Z" horiz-adv-x="674" d="M33 0v221l356 1178h-328v203h578v-216l-354 -1177h342v-209h-594z" />
<glyph unicode="[" horiz-adv-x="494" d="M115 -176v1778h319v-150h-110v-1470h110v-158h-319z" />
<glyph unicode="\" horiz-adv-x="471" d="M0 1622h160l360 -1812h-160z" />
<glyph unicode="]" horiz-adv-x="494" d="M63 -18h111v1470h-111v150h320v-1778h-320v158z" />
<glyph unicode="^" horiz-adv-x="2048" d="M418 899l497 561h218l495 -561h-207l-397 397l-399 -397h-207z" />
<glyph unicode="_" horiz-adv-x="1024" d="M0 -311h1024v-172h-1024v172z" />
<glyph unicode="`" horiz-adv-x="1024" d="M279 1575h251l99 -223h-162z" />
<glyph unicode="a" horiz-adv-x="664" d="M57 188v344q0 92 34 142.5t145 101.5q100 49 121.5 83t21.5 104v77q0 55 -11 72.5t-40 17.5q-30 0 -42 -19.5t-12 -70.5v-141h-200v119q0 139 69.5 210.5t204.5 71.5q112 0 180 -54.5t68 -143.5v-1102h-207v123q-28 -68 -75 -104.5t-103 -36.5q-77 0 -115.5 51.5 t-38.5 154.5zM274 268q0 -50 12 -70t42 -20q29 0 40 17.5t11 72.5v467q-15 -16 -41 -42q-64 -63 -64 -122v-303z" />
<glyph unicode="b" horiz-adv-x="659" d="M68 0v1602h217v-424q32 59 77.5 89.5t102.5 30.5q72 0 103.5 -47t31.5 -157v-924q0 -93 -37.5 -140.5t-111.5 -47.5q-59 0 -97.5 26.5t-68.5 87.5v-96h-217zM285 250q0 -37 11.5 -55.5t35.5 -18.5t36.5 18.5t12.5 55.5v780q0 36 -13 56t-36 20t-35 -19.5t-12 -56.5v-780z " />
<glyph unicode="c" horiz-adv-x="637" d="M57 285v712q0 152 67.5 227.5t203.5 75.5t203 -75t67 -228v-135h-219v178q0 55 -11 72.5t-40 17.5q-30 0 -42 -19.5t-12 -70.5v-790q0 -50 12 -70t42 -20q29 0 40 17.5t11 72.5v217h219v-182q0 -152 -67.5 -227.5t-202.5 -75.5q-136 0 -203.5 75.5t-67.5 227.5z" />
<glyph unicode="d" horiz-adv-x="653" d="M55 170v952q0 93 34 134.5t110 41.5q51 0 95.5 -31t76.5 -89v424h217v-1602h-217v96q-31 -61 -69.5 -87.5t-96.5 -26.5q-74 0 -112 47.5t-38 140.5zM274 250q0 -37 12 -55.5t36 -18.5t36.5 18.5t12.5 55.5v780q0 36 -13 56t-36 20t-35.5 -19.5t-12.5 -56.5v-780z" />
<glyph unicode="e" horiz-adv-x="653" d="M57 285v712q0 152 67.5 227.5t203.5 75.5q135 0 202.5 -75.5t67.5 -227.5v-362h-324v-385q0 -50 12 -70t42 -20q29 0 40 17.5t11 72.5v180h219v-145q0 -152 -67.5 -227.5t-202.5 -75.5q-136 0 -203.5 75.5t-67.5 227.5zM274 795h105v245q0 55 -11 72.5t-40 17.5 q-30 0 -42 -19.5t-12 -70.5v-245z" />
<glyph unicode="f" horiz-adv-x="418" d="M16 1120v160h80v113q0 103 52.5 156t156.5 53h90v-201q-1 0 -6 1q-18 3 -24 3q-27 0 -38.5 -14t-11.5 -48v-63h80v-160h-80v-1120h-219v1120h-80z" />
<glyph unicode="g" horiz-adv-x="659" d="M52 0h216v-6q0 -28 12.5 -42.5t36.5 -14.5q33 0 45.5 21t12.5 81v145q-35 -61 -77.5 -89.5t-98.5 -28.5q-71 0 -105.5 43.5t-34.5 134.5v876q0 94 35.5 136t112.5 42q57 0 104.5 -38t71.5 -103v123h209v-1239q0 -132 -70 -200t-205 -68q-127 0 -195.5 58.5t-69.5 168.5z M279 328q0 -37 11.5 -55.5t35.5 -18.5t36.5 18.5t12.5 55.5v694q0 37 -12.5 56.5t-36.5 19.5t-35.5 -19t-11.5 -55v-696z" />
<glyph unicode="h" horiz-adv-x="662" d="M66 0v1602h219v-426q25 57 70 89.5t98 32.5q76 0 110.5 -42.5t34.5 -135.5v-1120h-217v1030q0 36 -13 56t-36 20t-35 -19.5t-12 -56.5v-1030h-219z" />
<glyph unicode="i" horiz-adv-x="360" d="M72 0v1280h217v-1280h-217zM72 1362v240h217v-240h-217z" />
<glyph unicode="j" horiz-adv-x="371" d="M25 -35q35 0 47 16.5t12 96.5v1202h217v-1300q0 -118 -49.5 -163.5t-175.5 -45.5q-8 0 -25 1t-26 1v192zM84 1362v240h217v-240h-217z" />
<glyph unicode="k" horiz-adv-x="621" d="M68 0v1602h217v-910h8l113 588h206l-159 -600l180 -680h-230l-110 606h-8v-606h-217z" />
<glyph unicode="l" horiz-adv-x="360" d="M72 0v1602h217v-1602h-217z" />
<glyph unicode="m" horiz-adv-x="977" d="M68 0v1282h206v-125q29 68 76 105.5t103 37.5q63 0 99 -31t50 -100q16 59 64 95t110 36q70 0 103.5 -44t33.5 -136v-1120h-217v1030q0 36 -12.5 56t-36.5 20q-23 0 -35 -19.5t-12 -56.5v-1030h-219v1030q0 36 -13 56t-36 20t-35 -19.5t-12 -56.5v-1030h-217z" />
<glyph unicode="n" horiz-adv-x="662" d="M66 0v1280h208v-123q29 68 75.5 104.5t103.5 36.5q76 0 110.5 -42.5t34.5 -135.5v-1120h-217v1030q0 36 -13 56t-36 20t-35 -19.5t-12 -56.5v-1030h-219z" />
<glyph unicode="o" horiz-adv-x="653" d="M57 285v712q0 152 67.5 227.5t203.5 75.5q135 0 202.5 -75.5t67.5 -227.5v-712q0 -152 -67.5 -227.5t-202.5 -75.5q-136 0 -203.5 75.5t-67.5 227.5zM274 250q0 -50 12 -70t42 -20q29 0 40 17.5t11 72.5v790q0 55 -11 72.5t-40 17.5q-30 0 -42 -19.5t-12 -70.5v-790z" />
<glyph unicode="p" horiz-adv-x="659" d="M66 -209v1489h208v-123q29 68 75.5 104.5t103.5 36.5q76 0 110.5 -42.5t34.5 -135.5v-960q0 -93 -34.5 -135.5t-110.5 -42.5q-53 0 -94.5 29.5t-73.5 90.5v-311h-219zM285 250q0 -37 11.5 -55.5t35.5 -18.5t36.5 18.5t12.5 55.5v780q0 36 -13 56t-36 20t-35 -19.5 t-12 -56.5v-780z" />
<glyph unicode="q" horiz-adv-x="659" d="M59 160v960q0 94 35.5 136t112.5 42q56 0 101.5 -36.5t74.5 -104.5v123h209v-1489h-217v311q-32 -61 -73.5 -90.5t-94.5 -29.5q-77 0 -112.5 42t-35.5 136zM279 250q0 -37 11.5 -55.5t35.5 -18.5t36.5 18.5t12.5 55.5v780q0 36 -13 56t-36 20t-35 -19.5t-12 -56.5v-780z " />
<glyph unicode="r" horiz-adv-x="440" d="M68 0v1280h202v-223q22 115 60.5 174.5t95.5 66.5v-354q-81 0 -111 -28t-30 -103v-813h-217z" />
<glyph unicode="s" horiz-adv-x="639" d="M45 920v104q0 135 69 205.5t201 70.5q138 0 204.5 -76.5t66.5 -234.5v-110h-219v161q0 55 -11.5 72.5t-40.5 17.5q-28 0 -39.5 -19t-11.5 -71v-69q0 -101 107 -212q20 -21 30 -32q9 -9 26 -28q169 -183 169 -324v-117q0 -130 -71.5 -203t-198.5 -73q-140 0 -205.5 76.5 t-65.5 240.5v141h219v-190q0 -52 11.5 -71t40.5 -19t40 17.5t11 72.5v69q0 116 -110 230q-26 28 -40 43q-13 15 -38 44q-144 163 -144 284z" />
<glyph unicode="t" horiz-adv-x="440" d="M27 1120v160h73v246h217v-246h76v-160h-76v-833q0 -77 15 -96t55 -19h6v-190q-12 0 -32.5 -1t-28.5 -1q-133 0 -182.5 44t-49.5 162v934h-73z" />
<glyph unicode="u" horiz-adv-x="664" d="M63 160v1120h218v-1030q0 -36 12.5 -55t36.5 -19q23 0 35 18.5t12 55.5v1030h219v-1280h-209v123q-29 -68 -75.5 -104.5t-102.5 -36.5q-77 0 -111.5 42t-34.5 136z" />
<glyph unicode="v" horiz-adv-x="637" d="M12 1280h232l75 -1040l76 1040h232l-203 -1280h-215z" />
<glyph unicode="w" horiz-adv-x="1085" d="M10 1280h226l100 -1040l102 1040h209l103 -1040l102 1040h225l-213 -1280h-198l-101 707q-10 74 -15.5 141t-6.5 126q-4 -69 -24 -229q-3 -25 -5 -38l-92 -707h-199z" />
<glyph unicode="x" horiz-adv-x="627" d="M10 0l189 707l-183 573h228l69 -446l68 446h227l-182 -573l190 -707h-227l-76 516l-75 -516h-228z" />
<glyph unicode="y" horiz-adv-x="635" d="M12 1280h238l65 -786q2 -10 5 -72.5t6 -107.5q2 50 4.5 95.5t5.5 84.5l65 786h224l-207 -1305q-23 -136 -65.5 -169t-164.5 -33h-82v182q54 0 76.5 12.5t22.5 42.5q0 5 -5 37q-3 25 -6 44z" />
<glyph unicode="z" horiz-adv-x="559" d="M41 0v184l254 918h-240v178h465v-184l-254 -918h240v-178h-465z" />
<glyph unicode="{" horiz-adv-x="1024" d="M162 442v179q7 0 21.5 -1.5t21.5 -1.5q126 0 178.5 59t52.5 202v247q0 145 23 206.5t80 94.5q44 27 109 38.5t181 11.5h45v-179q-8 0 -24 1t-23 1q-109 0 -147.5 -41.5t-38.5 -173.5v-241q0 -155 -44 -220.5t-159 -93.5q114 -27 158.5 -92.5t44.5 -220.5v-240 q0 -132 39.5 -174.5t148.5 -42.5q7 0 22 1t23 1v-176h-63q-102 0 -165.5 12t-106.5 37q-57 34 -80 96t-23 203v248q0 144 -52.5 203t-178.5 59q-7 0 -21.5 -1t-21.5 -1z" />
<glyph unicode="|" horiz-adv-x="1024" d="M424 -483v2048h178v-2048h-178z" />
<glyph unicode="}" horiz-adv-x="1024" d="M152 -238q8 0 23 -1t22 -1q109 0 147.5 42t38.5 175v240q0 153 45 219t160 94q-115 28 -160 93.5t-45 220.5v241q0 132 -38 173.5t-146 41.5q-7 0 -23 -1t-24 -1v179h45q115 0 179.5 -11.5t108.5 -38.5q57 -33 80 -95t23 -206v-247q0 -144 52 -202.5t179 -58.5 q6 0 21 1.5t22 1.5v-179q-7 0 -21.5 1t-21.5 1q-126 0 -178.5 -59t-52.5 -203v-248q0 -143 -23 -204t-80 -95q-43 -26 -108 -37.5t-180 -11.5h-45v176z" />
<glyph unicode="~" horiz-adv-x="1706" d="M178 434v187q106 72 202 107.5t185 35.5q62 0 125.5 -12t168.5 -48q13 -4 42 -15q164 -58 250 -58q85 0 177 37t202 116v-184q-103 -71 -197.5 -106t-183.5 -35q-44 0 -92.5 8.5t-98.5 26.5q-25 8 -76 26q-212 74 -319 74q-82 0 -174 -38t-211 -122z" />
<glyph unicode="&#xa0;" />
<glyph unicode="&#xa1;" horiz-adv-x="403" d="M72 0l65 1233h129l66 -1233h-260zM84 1348v254h235v-254h-235z" />
<glyph unicode="&#xa2;" d="M90 285v712q0 141 55.5 213t178.5 90v132h79v-132q122 -21 175 -91.5t53 -211.5v-135h-219v178q0 55 -11.5 72.5t-40.5 17.5t-41 -19.5t-12 -70.5v-790q0 -50 12 -70t41 -20t40.5 17.5t11.5 72.5v217h219v-182q0 -141 -55 -213.5t-173 -85.5v-179h-79l-1 181 q-118 9 -175.5 82t-57.5 215z" />
<glyph unicode="&#xa3;" d="M37 1161v78q0 162 78.5 244t234.5 82q133 0 211 -75t78 -202v-182h-225v154q0 74 -15 97t-53 23q-36 0 -50.5 -26t-14.5 -94v-74q0 -55 39.5 -168t48.5 -174h213v-109h-185q22 -62 32.5 -112.5t10.5 -87.5q0 -109 -44.5 -190.5t-143.5 -154.5q41 12 63 16.5t37 4.5 q22 0 70 -10.5t76 -10.5q30 0 57 8.5t47 24.5l68 -182q-47 -31 -90.5 -45t-96.5 -14q-47 0 -129.5 25.5t-115.5 25.5q-32 0 -63.5 -10.5t-63.5 -32.5l-68 176q90 59 132 128.5t42 160.5q0 53 -14 124.5t-41 155.5h-123v109h88q-46 100 -68 177.5t-22 139.5z" />
<glyph unicode="&#xa4;" horiz-adv-x="1241" d="M76 432l203 205q-40 53 -60 115.5t-20 132.5q0 69 20 131.5t60 116.5l-203 204l92 93l203 -203q55 41 117 61.5t133 20.5t134 -20.5t117 -61.5l203 203l94 -93l-204 -204q39 -54 59 -116.5t20 -131.5q0 -70 -20 -132.5t-59 -115.5l204 -205l-94 -92l-203 205 q-57 -42 -118 -62t-131 -20q-72 0 -135 20.5t-117 61.5l-203 -205zM332 885q0 -120 84.5 -204.5t206.5 -84.5q121 0 205.5 84.5t84.5 204.5q0 119 -85.5 205t-204.5 86q-120 0 -205.5 -86t-85.5 -205z" />
<glyph unicode="&#xa5;" d="M0 672v108h188l-32 131h-156v109h129l-129 526h233l111 -651l117 651h231l-139 -526h139v-109h-172l-35 -131h207v-108h-235v-672h-240v672h-217z" />
<glyph unicode="&#xa6;" horiz-adv-x="1024" d="M424 -350v758h178v-758h-178zM424 674v758h178v-758h-178z" />
<glyph unicode="&#xa7;" horiz-adv-x="729" d="M61 721v113q0 57 31 109t88 93q-36 55 -53.5 106.5t-17.5 102.5v98q0 136 67 206.5t197 70.5q120 0 187 -70.5t67 -197.5v-131h-201v88q0 75 -13 100t-44 25q-28 0 -42 -21.5t-14 -62.5v-76q0 -68 133 -198q42 -41 64 -64q84 -88 115.5 -151.5t31.5 -135.5v-100 q0 -54 -31 -110t-81 -87q48 -57 69 -110t21 -117v-131q0 -114 -76 -182t-205 -68q-124 0 -190 74t-66 215v151h203v-117q0 -74 13.5 -101.5t45.5 -27.5q27 0 42.5 21t15.5 57v80q0 83 -153 249l-4 4q-10 11 -25 28q-175 192 -175 268zM274 774q0 -37 31.5 -83t110.5 -122 q15 6 24 19.5t9 29.5v80q0 30 -36 78t-109 114q-13 -4 -21.5 -15.5t-8.5 -24.5v-76z" />
<glyph unicode="&#xa8;" horiz-adv-x="1024" d="M285 1362v201h182v-201h-182zM555 1362v201h184v-201h-184z" />
<glyph unicode="&#xa9;" horiz-adv-x="1706" d="M113 731q0 145 57 280.5t164 243.5q105 107 235.5 161t282.5 54t286 -55t240 -162q105 -105 160 -238.5t55 -283.5q0 -153 -54.5 -286t-158.5 -234q-108 -107 -244.5 -164t-283.5 -57q-146 0 -280 56.5t-240 162.5q-107 106 -163 240.5t-56 281.5zM223 731 q0 -126 48 -240t139 -204q90 -91 204.5 -139t239.5 -48t240 48.5t209 140.5q89 88 135.5 200.5t46.5 241.5t-47 243.5t-135 203.5q-91 90 -205 137t-244 47t-243 -46.5t-201 -135.5q-90 -92 -138.5 -208t-48.5 -241zM457 725q0 208 109.5 331.5t291.5 123.5q147 0 243 -77 t105 -200h-166q-10 74 -60 114t-130 40q-99 0 -155 -86.5t-56 -239.5q0 -152 57.5 -234.5t163.5 -82.5q80 0 129 43.5t60 124.5h165q-7 -135 -106.5 -217t-253.5 -82q-183 0 -290 119t-107 323z" />
<glyph unicode="&#xaa;" horiz-adv-x="498" d="M43 838v241q0 65 25.5 100.5t107.5 69.5l2 1q107 49 107 130v56q0 38 -8.5 49.5t-30.5 11.5t-30.5 -13.5t-8.5 -47.5v-101h-152v84q0 97 53 148t154 51q83 0 133.5 -38.5t50.5 -100.5v-772h-153v86q-23 -48 -58 -73.5t-77 -25.5q-57 0 -86 36.5t-29 107.5zM207 895 q0 -36 8.5 -50t30.5 -14t30.5 12.5t8.5 51.5v326q-10 -11 -30 -29q-48 -44 -48 -86v-211z" />
<glyph unicode="&#xab;" horiz-adv-x="696" d="M53 641l99 328h172l-103 -328l103 -328h-172zM344 641l98 328h172l-102 -328l102 -328h-172z" />
<glyph unicode="&#xac;" horiz-adv-x="1706" d="M254 696v166h1198v-502h-166v336h-1032z" />
<glyph unicode="&#xad;" horiz-adv-x="446" d="M55 559v197h336v-197h-336z" />
<glyph unicode="&#xae;" horiz-adv-x="1706" d="M113 731q0 147 57.5 284t165.5 245q104 104 234.5 157t281.5 53q153 0 288.5 -56t241.5 -165q103 -104 157 -236.5t54 -281.5q0 -153 -55.5 -287t-161.5 -237q-108 -105 -243 -161t-281 -56q-147 0 -282.5 57.5t-241.5 165.5q-105 106 -160 239t-55 279zM223 731 q0 -125 47 -238.5t136 -203.5q90 -91 204 -140t234 -49q130 0 246.5 47t209.5 138q89 86 137 198.5t48 237.5q0 133 -45.5 247.5t-134.5 205.5q-93 92 -207.5 140t-243.5 48t-240 -45.5t-200 -134.5q-92 -94 -141.5 -210t-49.5 -241zM551 330v829h319q173 0 262 -57t89 -168 q0 -91 -48 -150.5t-137 -78.5l185 -375h-199l-164 346h-129v-346h-178zM729 786h117q100 0 146 30.5t46 96.5q0 69 -48 101.5t-152 32.5h-109v-261z" />
<glyph unicode="&#xaf;" horiz-adv-x="1024" d="M295 1397v131h434v-131h-434z" />
<glyph unicode="&#xb0;" horiz-adv-x="674" d="M43 1163q0 125 86 211t209 86q121 0 208 -87t87 -210q0 -121 -87 -208t-210 -87t-208 85.5t-85 209.5zM152 1165q0 -76 54.5 -131t131.5 -55t130.5 54.5t53.5 131.5t-53.5 131t-130.5 54t-131.5 -54t-54.5 -131z" />
<glyph unicode="&#xb1;" horiz-adv-x="1706" d="M254 14v168h1198v-168h-1198zM254 707v165h514v334h170v-334h514v-165h-514v-334h-170v334h-514z" />
<glyph unicode="&#xb2;" horiz-adv-x="457" d="M31 618v134l182 385q31 66 40 98.5t9 60.5v68q0 45 -9 61.5t-32 16.5q-22 0 -31.5 -16.5t-9.5 -61.5v-102h-145v98q0 96 49 146t143 50q89 0 141 -46.5t52 -125.5v-53q0 -40 -12 -88t-35 -98l-189 -402h219v-125h-372z" />
<glyph unicode="&#xb3;" horiz-adv-x="457" d="M35 803v143h149v-147q0 -44 8.5 -59t28.5 -15q22 0 30.5 14t8.5 60v209q0 29 -16 41t-56 12q-2 0 -10 -1t-12 -1v108q6 -1 11 -1.5t16 -0.5q39 0 53 13.5t14 52.5v135q0 45 -8.5 59.5t-30.5 14.5q-20 0 -28.5 -14.5t-8.5 -59.5v-111h-145v121q0 89 47.5 134.5t138.5 45.5 q90 0 138.5 -46.5t48.5 -133.5v-114q0 -66 -19 -100.5t-61 -47.5q45 -6 64.5 -34.5t19.5 -88.5v-182q0 -101 -47.5 -151t-143.5 -50q-94 0 -142 49t-48 146z" />
<glyph unicode="&#xb4;" horiz-adv-x="1024" d="M397 1352l97 223h254l-189 -223h-162z" />
<glyph unicode="&#xb5;" horiz-adv-x="1208" d="M-92 -430l297 1511h229l-125 -635q-6 -29 -9 -55t-3 -49q0 -96 46.5 -146.5t135.5 -50.5q122 0 193.5 88.5t111.5 292.5l109 555h225l-145 -739q-10 -49 -14.5 -81.5t-4.5 -51.5q0 -36 15.5 -51t52.5 -15q13 0 20.5 0.5t13.5 1.5l-32 -159q-32 -9 -68.5 -13t-81.5 -4 q-74 0 -111.5 31.5t-37.5 93.5v15q-41 -67 -108 -104.5t-146 -37.5q-81 0 -137.5 26t-97.5 83l-99 -506h-229z" />
<glyph unicode="&#xb6;" horiz-adv-x="1024" d="M55 1130q0 158 107 253.5t284 95.5h523v-99h-117v-1380h-129v1380h-168v-1380h-131v784q-168 6 -268.5 101t-100.5 245z" />
<glyph unicode="&#xb7;" horiz-adv-x="346" d="M29 786q0 58 42.5 101t100.5 43t99.5 -42.5t41.5 -101.5q0 -58 -41.5 -99.5t-99.5 -41.5q-57 0 -100 42.5t-43 98.5z" />
<glyph unicode="&#xb8;" horiz-adv-x="1024" d="M287 -266l159 198h170l-92 -198h-237z" />
<glyph unicode="&#xb9;" horiz-adv-x="457" d="M63 1268v162q39 30 71 59t56 57h127v-928h-149v764q-21 -29 -47 -57.5t-58 -56.5z" />
<glyph unicode="&#xba;" horiz-adv-x="489" d="M43 905v500q0 106 51 159.5t152 53.5t152 -53.5t51 -159.5v-500q0 -106 -51 -158.5t-152 -52.5q-102 0 -152.5 52.5t-50.5 158.5zM207 881q0 -35 8.5 -48.5t30.5 -13.5t30.5 11.5t8.5 50.5v555q0 38 -8.5 49.5t-30.5 11.5t-30.5 -13.5t-8.5 -47.5v-555z" />
<glyph unicode="&#xbb;" horiz-adv-x="696" d="M82 313l104 328l-104 328h174l96 -328l-96 -328h-174zM373 313l102 328l-102 328h172l98 -328l-98 -328h-172z" />
<glyph unicode="&#xbc;" horiz-adv-x="1100" d="M61 1286l1 152l5 4q84 69 115 104h121v-866h-141v713q-27 -35 -51.5 -61t-49.5 -46zM260 -18l442 1583h138l-441 -1583h-139zM686 147v140l172 579h166v-604h51v-115h-51v-147h-143v147h-195zM766 262h115v400z" />
<glyph unicode="&#xbd;" horiz-adv-x="1100" d="M61 1286l1 152l5 4q84 69 115 104h121v-866h-141v713q-27 -35 -51.5 -61t-49.5 -46zM260 -18l442 1583h138l-441 -1583h-139zM692 0v123l174 360q30 63 38.5 92.5t8.5 57.5v61q0 46 -8.5 60t-30.5 14q-21 0 -29.5 -15.5t-8.5 -58.5v-94h-140v92q0 91 47 138t138 47 q84 0 133 -44t49 -118v-49q0 -40 -11.5 -84.5t-33.5 -89.5l-178 -375h209v-117h-357z" />
<glyph unicode="&#xbe;" horiz-adv-x="1100" d="M33 852v133h143v-137q0 -41 7.5 -54.5t27.5 -13.5q21 0 29 13.5t8 54.5v194q0 29 -15 40.5t-53 11.5q-3 0 -10.5 -1t-11.5 -1v100q5 -1 10.5 -1.5t15.5 -0.5q38 0 52 13t14 48v125q0 42 -9 57t-30 15q-19 0 -27 -14.5t-8 -57.5v-100h-139v110q0 83 46 126.5t132 43.5 t132 -44t46 -126v-106q0 -63 -18 -94.5t-59 -42.5q43 -6 61 -32t18 -83v-170q0 -95 -44.5 -141.5t-135.5 -46.5q-90 0 -136 46t-46 136zM260 -18l442 1583h138l-441 -1583h-139zM686 147v140l172 579h166v-604h51v-115h-51v-147h-143v147h-195zM766 262h115v400z" />
<glyph unicode="&#xbf;" horiz-adv-x="664" d="M57 262v74q0 152 122 367q33 58 48 88q35 68 51.5 176.5t16.5 263.5h123v-361q0 -66 -14 -129t-50 -145q-32 -76 -45.5 -129.5t-13.5 -97.5v-72q0 -85 12 -107t43 -22q30 0 41.5 25.5t11.5 103.5v113h224v-109q0 -157 -72.5 -238t-210.5 -81q-136 0 -211.5 73.5 t-75.5 206.5zM240 1348v254h233v-254h-233z" />
<glyph unicode="&#xc0;" horiz-adv-x="768" d="M20 0l185 1602h358l185 -1602h-263l-12 201h-178l-12 -201h-263zM152 1897h251l99 -223h-162zM311 389h146l-35 483q-5 56 -24 350q-9 139 -15 221q-15 -239 -24.5 -382t-12.5 -189z" />
<glyph unicode="&#xc1;" horiz-adv-x="768" d="M20 0l185 1602h358l185 -1602h-263l-12 201h-178l-12 -201h-263zM270 1674l97 223h254l-189 -223h-162zM311 389h146l-35 483q-5 56 -24 350q-9 139 -15 221q-15 -239 -24.5 -382t-12.5 -189z" />
<glyph unicode="&#xc2;" horiz-adv-x="768" d="M20 0l185 1602h358l185 -1602h-263l-12 201h-178l-12 -201h-263zM133 1674l154 223h196l154 -223h-162l-90 108l-90 -108h-162zM311 389h146l-35 483q-5 56 -24 350q-9 139 -15 221q-15 -239 -24.5 -382t-12.5 -189z" />
<glyph unicode="&#xc3;" horiz-adv-x="768" d="M20 0l185 1602h358l185 -1602h-263l-12 201h-178l-12 -201h-263zM131 1682v16q0 87 42.5 137t115.5 50q45 0 107.5 -31t84.5 -31q24 0 37.5 15.5t13.5 42.5v6h107v-17q0 -86 -42.5 -136t-115.5 -50q-45 0 -107.5 30.5t-84.5 30.5q-23 0 -37 -15.5t-14 -41.5v-6h-107z M311 389h146l-35 483q-5 56 -24 350q-9 139 -15 221q-15 -239 -24.5 -382t-12.5 -189z" />
<glyph unicode="&#xc4;" horiz-adv-x="768" d="M20 0l185 1602h358l185 -1602h-263l-12 201h-178l-12 -201h-263zM158 1684v201h182v-201h-182zM311 389h146l-35 483q-5 56 -24 350q-9 139 -15 221q-15 -239 -24.5 -382t-12.5 -189zM428 1684v201h184v-201h-184z" />
<glyph unicode="&#xc5;" horiz-adv-x="768" d="M20 0l185 1602h358l185 -1602h-263l-12 201h-178l-12 -201h-263zM205 1837q0 74 52 126t126 52t127 -52.5t53 -125.5q0 -75 -52 -126.5t-128 -51.5q-75 0 -126.5 51.5t-51.5 126.5zM311 389h146l-35 483q-5 56 -24 350q-9 139 -15 221q-15 -239 -24.5 -382t-12.5 -189z M317 1837q0 -28 19.5 -48t46.5 -20q29 0 48.5 20t19.5 48q0 29 -19.5 48.5t-48.5 19.5q-28 0 -47 -19.5t-19 -48.5z" />
<glyph unicode="&#xc6;" horiz-adv-x="1079" d="M-8 0l317 1604h721v-203h-293v-408h293v-205h-293v-579h293v-209h-538v201h-207l-31 -201h-262zM319 389h173v1012h-23z" />
<glyph unicode="&#xc7;" horiz-adv-x="750" d="M61 358v887q0 189 80.5 283t241.5 94q162 0 243 -94.5t81 -282.5v-170h-252v234q0 68 -16 91t-56 23t-55 -21t-15 -93v-1008q0 -72 15 -93.5t55 -21.5t56 23.5t16 91.5v244h252v-187q0 -188 -81 -282t-243 -94q-161 0 -241.5 93.5t-80.5 282.5zM150 -266l159 198h170 l-92 -198h-237z" />
<glyph unicode="&#xc8;" horiz-adv-x="678" d="M66 0v1602h565v-203h-314v-406h314v-205h-314v-579h314v-209h-565zM107 1897h251l99 -223h-162z" />
<glyph unicode="&#xc9;" horiz-adv-x="678" d="M66 0v1602h565v-203h-314v-406h314v-205h-314v-579h314v-209h-565zM225 1674l97 223h254l-189 -223h-162z" />
<glyph unicode="&#xca;" horiz-adv-x="678" d="M66 0v1602h565v-203h-314v-406h314v-205h-314v-579h314v-209h-565zM88 1674l154 223h196l154 -223h-162l-90 108l-90 -108h-162z" />
<glyph unicode="&#xcb;" horiz-adv-x="678" d="M66 0v1602h565v-203h-314v-406h314v-205h-314v-579h314v-209h-565zM113 1684v201h182v-201h-182zM383 1684v201h184v-201h-184z" />
<glyph unicode="&#xcc;" horiz-adv-x="403" d="M-30 1897h251l99 -223h-162zM76 0v1602h252v-1602h-252z" />
<glyph unicode="&#xcd;" horiz-adv-x="403" d="M76 0v1602h252v-1602h-252zM88 1674l97 223h254l-189 -223h-162z" />
<glyph unicode="&#xce;" horiz-adv-x="403" d="M-49 1674l154 223h196l154 -223h-162l-90 108l-90 -108h-162zM76 0v1602h252v-1602h-252z" />
<glyph unicode="&#xcf;" horiz-adv-x="403" d="M-24 1684v201h182v-201h-182zM76 0v1602h252v-1602h-252zM246 1684v201h184v-201h-184z" />
<glyph unicode="&#xd0;" horiz-adv-x="778" d="M0 840v133h76v629h268q223 0 298 -72t75 -279v-874q0 -214 -73.5 -295.5t-260.5 -81.5h-307v840h-76zM328 203h22q63 0 89 35.5t26 126.5v895q0 82 -25 112.5t-90 30.5h-22v-430h67v-133h-67v-637z" />
<glyph unicode="&#xd1;" horiz-adv-x="758" d="M66 0v1602h206l213 -1057q-9 171 -13.5 285.5t-4.5 170.5v601h225v-1602h-215l-205 1042q10 -124 14.5 -228.5t4.5 -192.5v-621h-225zM125 1682v16q0 87 42.5 137t115.5 50q45 0 107.5 -31t84.5 -31q24 0 37.5 15.5t13.5 42.5v6h107v-17q0 -86 -42.5 -136t-115.5 -50 q-45 0 -107.5 30.5t-84.5 30.5q-23 0 -37 -15.5t-14 -41.5v-6h-107z" />
<glyph unicode="&#xd2;" horiz-adv-x="768" d="M61 358v887q0 189 80.5 283t241.5 94q162 0 243 -94.5t81 -282.5v-887q0 -188 -81 -282t-243 -94q-161 0 -241.5 93.5t-80.5 282.5zM152 1897h251l99 -223h-162zM313 301q0 -72 15 -93.5t55 -21.5t56 23.5t16 91.5v1008q0 68 -16 91t-56 23t-55 -21t-15 -93v-1008z" />
<glyph unicode="&#xd3;" horiz-adv-x="768" d="M61 358v887q0 189 80.5 283t241.5 94q162 0 243 -94.5t81 -282.5v-887q0 -188 -81 -282t-243 -94q-161 0 -241.5 93.5t-80.5 282.5zM270 1674l97 223h254l-189 -223h-162zM313 301q0 -72 15 -93.5t55 -21.5t56 23.5t16 91.5v1008q0 68 -16 91t-56 23t-55 -21t-15 -93 v-1008z" />
<glyph unicode="&#xd4;" horiz-adv-x="768" d="M61 358v887q0 189 80.5 283t241.5 94q162 0 243 -94.5t81 -282.5v-887q0 -188 -81 -282t-243 -94q-161 0 -241.5 93.5t-80.5 282.5zM133 1674l154 223h196l154 -223h-162l-90 108l-90 -108h-162zM313 301q0 -72 15 -93.5t55 -21.5t56 23.5t16 91.5v1008q0 68 -16 91 t-56 23t-55 -21t-15 -93v-1008z" />
<glyph unicode="&#xd5;" horiz-adv-x="768" d="M61 358v887q0 189 80.5 283t241.5 94q162 0 243 -94.5t81 -282.5v-887q0 -188 -81 -282t-243 -94q-161 0 -241.5 93.5t-80.5 282.5zM131 1682v16q0 87 42.5 137t115.5 50q45 0 107.5 -31t84.5 -31q24 0 37.5 15.5t13.5 42.5v6h107v-17q0 -86 -42.5 -136t-115.5 -50 q-45 0 -107.5 30.5t-84.5 30.5q-23 0 -37 -15.5t-14 -41.5v-6h-107zM313 301q0 -72 15 -93.5t55 -21.5t56 23.5t16 91.5v1008q0 68 -16 91t-56 23t-55 -21t-15 -93v-1008z" />
<glyph unicode="&#xd6;" horiz-adv-x="768" d="M61 358v887q0 189 80.5 283t241.5 94q162 0 243 -94.5t81 -282.5v-887q0 -188 -81 -282t-243 -94q-161 0 -241.5 93.5t-80.5 282.5zM158 1684v201h182v-201h-182zM313 301q0 -72 15 -93.5t55 -21.5t56 23.5t16 91.5v1008q0 68 -16 91t-56 23t-55 -21t-15 -93v-1008z M428 1684v201h184v-201h-184z" />
<glyph unicode="&#xd7;" horiz-adv-x="1706" d="M287 152l458 458l-458 461l116 117l459 -459l461 459l117 -117l-459 -461l459 -458l-117 -119l-461 461l-459 -461z" />
<glyph unicode="&#xd8;" horiz-adv-x="768" d="M41 -25l57 162q-18 41 -27.5 97.5t-9.5 123.5v887q0 189 80.5 283t241.5 94q69 0 125.5 -20t105.5 -62l41 111l78 -29l-61 -166q17 -42 26 -95.5t9 -115.5v-887q0 -188 -81 -282t-243 -94q-68 0 -123.5 19t-95.5 56l-45 -114zM305 330q0 -88 17 -116t61 -28q46 0 64 28.5 t18 115.5v590l-160 -531v-59zM305 659l160 531v92q0 86 -18 113.5t-64 27.5q-44 0 -61 -27t-17 -114v-623z" />
<glyph unicode="&#xd9;" horiz-adv-x="772" d="M63 358v1244h252v-1301q0 -70 16 -92.5t56 -22.5q39 0 54.5 22.5t15.5 92.5v1301h252v-1244q0 -189 -80.5 -282.5t-241.5 -93.5q-162 0 -243 94t-81 282zM154 1897h251l99 -223h-162z" />
<glyph unicode="&#xda;" horiz-adv-x="772" d="M63 358v1244h252v-1301q0 -70 16 -92.5t56 -22.5q39 0 54.5 22.5t15.5 92.5v1301h252v-1244q0 -189 -80.5 -282.5t-241.5 -93.5q-162 0 -243 94t-81 282zM272 1674l97 223h254l-189 -223h-162z" />
<glyph unicode="&#xdb;" horiz-adv-x="772" d="M63 358v1244h252v-1301q0 -70 16 -92.5t56 -22.5q39 0 54.5 22.5t15.5 92.5v1301h252v-1244q0 -189 -80.5 -282.5t-241.5 -93.5q-162 0 -243 94t-81 282zM135 1674l154 223h196l154 -223h-162l-90 108l-90 -108h-162z" />
<glyph unicode="&#xdc;" horiz-adv-x="772" d="M63 358v1244h252v-1301q0 -70 16 -92.5t56 -22.5q39 0 54.5 22.5t15.5 92.5v1301h252v-1244q0 -189 -80.5 -282.5t-241.5 -93.5q-162 0 -243 94t-81 282zM160 1684v201h182v-201h-182zM430 1684v201h184v-201h-184z" />
<glyph unicode="&#xdd;" d="M-20 1602h260l104 -678l111 678h256l-248 -912v-690h-252v690zM231 1674l97 223h254l-189 -223h-162z" />
<glyph unicode="&#xde;" horiz-adv-x="739" d="M76 0v1602h252v-340h98q156 0 223.5 -62.5t67.5 -206.5v-256q0 -160 -71 -231.5t-230 -71.5h-88v-434h-252zM328 631h24q63 0 88 34.5t25 125.5v133q0 82 -25 112.5t-90 30.5h-22v-436z" />
<glyph unicode="&#xdf;" horiz-adv-x="674" d="M70 0v1352q0 128 65.5 189t202.5 61q138 0 204 -61.5t66 -188.5v-54q0 -97 -27 -133t-102 -51q76 -12 103.5 -48.5t27.5 -131.5v-690q0 -144 -41.5 -194t-156.5 -50h-82v188q31 2 42 16t11 64v684q0 52 -9.5 63t-37.5 11v147q26 2 35.5 13.5t9.5 48.5v127q0 38 -11.5 57 t-33.5 19q-27 0 -40 -18.5t-13 -57.5v-1362h-213z" />
<glyph unicode="&#xe0;" horiz-adv-x="664" d="M57 188v344q0 92 34 142.5t145 101.5q100 49 121.5 83t21.5 104v77q0 55 -11 72.5t-40 17.5q-30 0 -42 -19.5t-12 -70.5v-141h-200v119q0 139 69.5 210.5t204.5 71.5q112 0 180 -54.5t68 -143.5v-1102h-207v123q-28 -68 -75 -104.5t-103 -36.5q-77 0 -115.5 51.5 t-38.5 154.5zM99 1575h251l99 -223h-162zM274 268q0 -50 12 -70t42 -20q29 0 40 17.5t11 72.5v467q-15 -16 -41 -42q-64 -63 -64 -122v-303z" />
<glyph unicode="&#xe1;" horiz-adv-x="664" d="M57 188v344q0 92 34 142.5t145 101.5q100 49 121.5 83t21.5 104v77q0 55 -11 72.5t-40 17.5q-30 0 -42 -19.5t-12 -70.5v-141h-200v119q0 139 69.5 210.5t204.5 71.5q112 0 180 -54.5t68 -143.5v-1102h-207v123q-28 -68 -75 -104.5t-103 -36.5q-77 0 -115.5 51.5 t-38.5 154.5zM217 1352l97 223h254l-189 -223h-162zM274 268q0 -50 12 -70t42 -20q29 0 40 17.5t11 72.5v467q-15 -16 -41 -42q-64 -63 -64 -122v-303z" />
<glyph unicode="&#xe2;" horiz-adv-x="664" d="M57 188v344q0 92 34 142.5t145 101.5q100 49 121.5 83t21.5 104v77q0 55 -11 72.5t-40 17.5q-30 0 -42 -19.5t-12 -70.5v-141h-200v119q0 139 69.5 210.5t204.5 71.5q112 0 180 -54.5t68 -143.5v-1102h-207v123q-28 -68 -75 -104.5t-103 -36.5q-77 0 -115.5 51.5 t-38.5 154.5zM80 1352l154 223h196l154 -223h-162l-90 108l-90 -108h-162zM274 268q0 -50 12 -70t42 -20q29 0 40 17.5t11 72.5v467q-15 -16 -41 -42q-64 -63 -64 -122v-303z" />
<glyph unicode="&#xe3;" horiz-adv-x="664" d="M57 188v344q0 92 34 142.5t145 101.5q100 49 121.5 83t21.5 104v77q0 55 -11 72.5t-40 17.5q-30 0 -42 -19.5t-12 -70.5v-141h-200v119q0 139 69.5 210.5t204.5 71.5q112 0 180 -54.5t68 -143.5v-1102h-207v123q-28 -68 -75 -104.5t-103 -36.5q-77 0 -115.5 51.5 t-38.5 154.5zM78 1360v16q0 87 42.5 137t115.5 50q45 0 107.5 -31t84.5 -31q24 0 37.5 15.5t13.5 42.5v6h107v-17q0 -86 -42.5 -136t-115.5 -50q-45 0 -107.5 30.5t-84.5 30.5q-23 0 -37 -15.5t-14 -41.5v-6h-107zM274 268q0 -50 12 -70t42 -20q29 0 40 17.5t11 72.5v467 q-15 -16 -41 -42q-64 -63 -64 -122v-303z" />
<glyph unicode="&#xe4;" horiz-adv-x="664" d="M57 188v344q0 92 34 142.5t145 101.5q100 49 121.5 83t21.5 104v77q0 55 -11 72.5t-40 17.5q-30 0 -42 -19.5t-12 -70.5v-141h-200v119q0 139 69.5 210.5t204.5 71.5q112 0 180 -54.5t68 -143.5v-1102h-207v123q-28 -68 -75 -104.5t-103 -36.5q-77 0 -115.5 51.5 t-38.5 154.5zM105 1362v201h182v-201h-182zM274 268q0 -50 12 -70t42 -20q29 0 40 17.5t11 72.5v467q-15 -16 -41 -42q-64 -63 -64 -122v-303zM375 1362v201h184v-201h-184z" />
<glyph unicode="&#xe5;" horiz-adv-x="664" d="M57 188v344q0 92 34 142.5t145 101.5q100 49 121.5 83t21.5 104v77q0 55 -11 72.5t-40 17.5q-30 0 -42 -19.5t-12 -70.5v-141h-200v119q0 139 69.5 210.5t204.5 71.5q112 0 180 -54.5t68 -143.5v-1102h-207v123q-28 -68 -75 -104.5t-103 -36.5q-77 0 -115.5 51.5 t-38.5 154.5zM150 1530q0 74 52 126t126 52q73 0 125.5 -52t52.5 -126q0 -75 -51.5 -126.5t-126.5 -51.5q-76 0 -127 51.5t-51 126.5zM262 1528q0 -28 19 -47t47 -19q29 0 48 19t19 47q0 29 -19 48t-48 19q-28 0 -47 -19t-19 -48zM274 268q0 -50 12 -70t42 -20q29 0 40 17.5 t11 72.5v467q-15 -16 -41 -42q-64 -63 -64 -122v-303z" />
<glyph unicode="&#xe6;" horiz-adv-x="977" d="M57 168v364q0 92 34 142.5t145 101.5q100 49 121.5 83t21.5 104v98q0 34 -13 51.5t-38 17.5q-27 0 -40.5 -18.5t-13.5 -54.5v-158h-200v119q0 138 70 210t204 72q56 0 93.5 -16t60.5 -51q26 33 67 50t93 17q126 0 192 -77t66 -226v-362h-324v-385q0 -50 12 -70t41 -20 t40 17.5t11 72.5v180h220v-145q0 -152 -68 -227.5t-203 -75.5q-98 0 -160.5 35.5t-97.5 111.5q-20 -71 -65.5 -109t-110.5 -38q-73 0 -115.5 49.5t-42.5 136.5zM274 244q0 -34 12.5 -51t37.5 -17q31 0 43 27.5t12 118.5v413q-14 -16 -40 -42q-65 -64 -65 -122v-327zM596 795 h104v245q0 55 -11 72.5t-40 17.5t-41 -19.5t-12 -70.5v-245z" />
<glyph unicode="&#xe7;" horiz-adv-x="637" d="M57 285v712q0 152 67.5 227.5t203.5 75.5t203 -75t67 -228v-135h-219v178q0 55 -11 72.5t-40 17.5q-30 0 -42 -19.5t-12 -70.5v-790q0 -50 12 -70t42 -20q29 0 40 17.5t11 72.5v217h219v-182q0 -152 -67.5 -227.5t-202.5 -75.5q-136 0 -203.5 75.5t-67.5 227.5zM94 -266 l159 198h170l-92 -198h-237z" />
<glyph unicode="&#xe8;" horiz-adv-x="653" d="M57 285v712q0 152 67.5 227.5t203.5 75.5q135 0 202.5 -75.5t67.5 -227.5v-362h-324v-385q0 -50 12 -70t42 -20q29 0 40 17.5t11 72.5v180h219v-145q0 -152 -67.5 -227.5t-202.5 -75.5q-136 0 -203.5 75.5t-67.5 227.5zM95 1575h251l99 -223h-162zM274 795h105v245 q0 55 -11 72.5t-40 17.5q-30 0 -42 -19.5t-12 -70.5v-245z" />
<glyph unicode="&#xe9;" horiz-adv-x="653" d="M57 285v712q0 152 67.5 227.5t203.5 75.5q135 0 202.5 -75.5t67.5 -227.5v-362h-324v-385q0 -50 12 -70t42 -20q29 0 40 17.5t11 72.5v180h219v-145q0 -152 -67.5 -227.5t-202.5 -75.5q-136 0 -203.5 75.5t-67.5 227.5zM213 1352l97 223h254l-189 -223h-162zM274 795h105 v245q0 55 -11 72.5t-40 17.5q-30 0 -42 -19.5t-12 -70.5v-245z" />
<glyph unicode="&#xea;" horiz-adv-x="653" d="M57 285v712q0 152 67.5 227.5t203.5 75.5q135 0 202.5 -75.5t67.5 -227.5v-362h-324v-385q0 -50 12 -70t42 -20q29 0 40 17.5t11 72.5v180h219v-145q0 -152 -67.5 -227.5t-202.5 -75.5q-136 0 -203.5 75.5t-67.5 227.5zM76 1352l154 223h196l154 -223h-162l-90 108 l-90 -108h-162zM274 795h105v245q0 55 -11 72.5t-40 17.5q-30 0 -42 -19.5t-12 -70.5v-245z" />
<glyph unicode="&#xeb;" horiz-adv-x="653" d="M57 285v712q0 152 67.5 227.5t203.5 75.5q135 0 202.5 -75.5t67.5 -227.5v-362h-324v-385q0 -50 12 -70t42 -20q29 0 40 17.5t11 72.5v180h219v-145q0 -152 -67.5 -227.5t-202.5 -75.5q-136 0 -203.5 75.5t-67.5 227.5zM101 1362v201h182v-201h-182zM274 795h105v245 q0 55 -11 72.5t-40 17.5q-30 0 -42 -19.5t-12 -70.5v-245zM371 1362v201h184v-201h-184z" />
<glyph unicode="&#xec;" horiz-adv-x="360" d="M-53 1575h251l99 -223h-162zM72 0v1280h217v-1280h-217z" />
<glyph unicode="&#xed;" horiz-adv-x="360" d="M65 1352l97 223h254l-189 -223h-162zM72 0v1280h217v-1280h-217z" />
<glyph unicode="&#xee;" horiz-adv-x="360" d="M-72 1352l154 223h196l154 -223h-162l-90 108l-90 -108h-162zM72 0v1280h217v-1280h-217z" />
<glyph unicode="&#xef;" horiz-adv-x="360" d="M-47 1362v201h182v-201h-182zM72 0v1280h217v-1280h-217zM223 1362v201h184v-201h-184z" />
<glyph unicode="&#xf0;" horiz-adv-x="653" d="M31 1362l168 68l-78 172h190l60 -115l164 63l40 -100l-149 -64l16 -28q92 -171 124 -269t32 -186v-618q0 -152 -67.5 -227.5t-202.5 -75.5q-136 0 -203.5 75.5t-67.5 227.5v618q0 147 59.5 219t188.5 82l-59 127l-172 -69zM274 250q0 -50 12 -70t42 -20q29 0 40 17.5 t11 72.5v690q0 55 -11 72.5t-40 17.5q-30 0 -42 -20t-12 -70v-690z" />
<glyph unicode="&#xf1;" horiz-adv-x="662" d="M66 0v1280h208v-123q29 68 75.5 104.5t103.5 36.5q76 0 110.5 -42.5t34.5 -135.5v-1120h-217v1030q0 36 -13 56t-36 20t-35 -19.5t-12 -56.5v-1030h-219zM78 1360v16q0 87 42.5 137t115.5 50q45 0 107.5 -31t84.5 -31q24 0 37.5 15.5t13.5 42.5v6h107v-17 q0 -86 -42.5 -136t-115.5 -50q-45 0 -107.5 30.5t-84.5 30.5q-23 0 -37 -15.5t-14 -41.5v-6h-107z" />
<glyph unicode="&#xf2;" horiz-adv-x="653" d="M57 285v712q0 152 67.5 227.5t203.5 75.5q135 0 202.5 -75.5t67.5 -227.5v-712q0 -152 -67.5 -227.5t-202.5 -75.5q-136 0 -203.5 75.5t-67.5 227.5zM95 1575h251l99 -223h-162zM274 250q0 -50 12 -70t42 -20q29 0 40 17.5t11 72.5v790q0 55 -11 72.5t-40 17.5 q-30 0 -42 -19.5t-12 -70.5v-790z" />
<glyph unicode="&#xf3;" horiz-adv-x="653" d="M57 285v712q0 152 67.5 227.5t203.5 75.5q135 0 202.5 -75.5t67.5 -227.5v-712q0 -152 -67.5 -227.5t-202.5 -75.5q-136 0 -203.5 75.5t-67.5 227.5zM213 1352l97 223h254l-189 -223h-162zM274 250q0 -50 12 -70t42 -20q29 0 40 17.5t11 72.5v790q0 55 -11 72.5t-40 17.5 q-30 0 -42 -19.5t-12 -70.5v-790z" />
<glyph unicode="&#xf4;" horiz-adv-x="653" d="M57 285v712q0 152 67.5 227.5t203.5 75.5q135 0 202.5 -75.5t67.5 -227.5v-712q0 -152 -67.5 -227.5t-202.5 -75.5q-136 0 -203.5 75.5t-67.5 227.5zM76 1352l154 223h196l154 -223h-162l-90 108l-90 -108h-162zM274 250q0 -50 12 -70t42 -20q29 0 40 17.5t11 72.5v790 q0 55 -11 72.5t-40 17.5q-30 0 -42 -19.5t-12 -70.5v-790z" />
<glyph unicode="&#xf5;" horiz-adv-x="653" d="M57 285v712q0 152 67.5 227.5t203.5 75.5q135 0 202.5 -75.5t67.5 -227.5v-712q0 -152 -67.5 -227.5t-202.5 -75.5q-136 0 -203.5 75.5t-67.5 227.5zM74 1360v16q0 87 42.5 137t115.5 50q45 0 107.5 -31t84.5 -31q24 0 37.5 15.5t13.5 42.5v6h107v-17q0 -86 -42.5 -136 t-115.5 -50q-45 0 -107.5 30.5t-84.5 30.5q-23 0 -37 -15.5t-14 -41.5v-6h-107zM274 250q0 -50 12 -70t42 -20q29 0 40 17.5t11 72.5v790q0 55 -11 72.5t-40 17.5q-30 0 -42 -19.5t-12 -70.5v-790z" />
<glyph unicode="&#xf6;" horiz-adv-x="653" d="M57 285v712q0 152 67.5 227.5t203.5 75.5q135 0 202.5 -75.5t67.5 -227.5v-712q0 -152 -67.5 -227.5t-202.5 -75.5q-136 0 -203.5 75.5t-67.5 227.5zM101 1362v201h182v-201h-182zM274 250q0 -50 12 -70t42 -20q29 0 40 17.5t11 72.5v790q0 55 -11 72.5t-40 17.5 q-30 0 -42 -19.5t-12 -70.5v-790zM371 1362v201h184v-201h-184z" />
<glyph unicode="&#xf7;" horiz-adv-x="1706" d="M254 528v166h1198v-166h-1198zM717 229q0 57 40.5 97.5t96.5 40.5q57 0 97 -40.5t40 -97.5q0 -56 -39.5 -95.5t-97.5 -39.5t-97.5 39t-39.5 96zM717 989q0 57 40.5 98t96.5 41q57 0 97 -41t40 -98q0 -56 -39.5 -95.5t-97.5 -39.5t-97.5 39t-39.5 96z" />
<glyph unicode="&#xf8;" horiz-adv-x="653" d="M57 -18l41 116q-21 37 -31 81.5t-10 105.5v712q0 152 67.5 227.5t203.5 75.5q52 0 97 -14t83 -43l35 94l65 -28l-45 -123q17 -41 26 -88.5t9 -100.5v-712q0 -152 -67.5 -227.5t-202.5 -75.5q-52 0 -96 12.5t-80 38.5l-29 -82zM268 264q0 -57 14 -80.5t46 -23.5t44.5 20 t12.5 84v486l-117 -443v-43zM268 508l117 440v78q0 68 -12 86t-45 18t-46.5 -23t-13.5 -81v-518z" />
<glyph unicode="&#xf9;" horiz-adv-x="664" d="M63 160v1120h218v-1030q0 -36 12.5 -55t36.5 -19q23 0 35 18.5t12 55.5v1030h219v-1280h-209v123q-29 -68 -75.5 -104.5t-102.5 -36.5q-77 0 -111.5 42t-34.5 136zM99 1575h251l99 -223h-162z" />
<glyph unicode="&#xfa;" horiz-adv-x="664" d="M63 160v1120h218v-1030q0 -36 12.5 -55t36.5 -19q23 0 35 18.5t12 55.5v1030h219v-1280h-209v123q-29 -68 -75.5 -104.5t-102.5 -36.5q-77 0 -111.5 42t-34.5 136zM217 1352l97 223h254l-189 -223h-162z" />
<glyph unicode="&#xfb;" horiz-adv-x="664" d="M63 160v1120h218v-1030q0 -36 12.5 -55t36.5 -19q23 0 35 18.5t12 55.5v1030h219v-1280h-209v123q-29 -68 -75.5 -104.5t-102.5 -36.5q-77 0 -111.5 42t-34.5 136zM80 1352l154 223h196l154 -223h-162l-90 108l-90 -108h-162z" />
<glyph unicode="&#xfc;" horiz-adv-x="664" d="M63 160v1120h218v-1030q0 -36 12.5 -55t36.5 -19q23 0 35 18.5t12 55.5v1030h219v-1280h-209v123q-29 -68 -75.5 -104.5t-102.5 -36.5q-77 0 -111.5 42t-34.5 136zM105 1362v201h182v-201h-182zM375 1362v201h184v-201h-184z" />
<glyph unicode="&#xfd;" horiz-adv-x="635" d="M12 1280h238l65 -786q2 -10 5 -72.5t6 -107.5q2 50 4.5 95.5t5.5 84.5l65 786h224l-207 -1305q-23 -136 -65.5 -169t-164.5 -33h-82v182q54 0 76.5 12.5t22.5 42.5q0 5 -5 37q-3 25 -6 44zM202 1352l97 223h254l-189 -223h-162z" />
<glyph unicode="&#xfe;" horiz-adv-x="659" d="M66 -209v1811h219v-428q22 56 68 90t100 34q76 0 110.5 -42.5t34.5 -135.5v-960q0 -93 -34.5 -135.5t-110.5 -42.5q-53 0 -94.5 29.5t-73.5 90.5v-311h-219zM285 250q0 -37 11.5 -55.5t35.5 -18.5t36.5 18.5t12.5 55.5v780q0 36 -13 56t-36 20t-35 -19.5t-12 -56.5v-780z " />
<glyph unicode="&#xff;" horiz-adv-x="635" d="M12 1280h238l65 -786q2 -10 5 -72.5t6 -107.5q2 50 4.5 95.5t5.5 84.5l65 786h224l-207 -1305q-23 -136 -65.5 -169t-164.5 -33h-82v182q54 0 76.5 12.5t22.5 42.5q0 5 -5 37q-3 25 -6 44zM90 1362v201h182v-201h-182zM360 1362v201h184v-201h-184z" />
<glyph unicode="&#x152;" horiz-adv-x="1020" d="M61 358v887q0 185 78.5 280t231.5 95q22 0 54.5 -4.5t77.5 -13.5h470v-203h-271v-406h271v-205h-271v-579h271v-209h-465q-43 -9 -79.5 -13.5t-61.5 -4.5q-151 0 -228.5 95.5t-77.5 280.5zM313 301q0 -72 15 -93.5t55 -21.5t56 23.5t16 91.5v1008q0 68 -16 91t-56 23 t-55 -21t-15 -93v-1008z" />
<glyph unicode="&#x153;" horiz-adv-x="975" d="M57 285v712q0 152 67.5 227.5t203.5 75.5q58 0 96.5 -14.5t64.5 -46.5q28 30 68 45.5t92 15.5q135 0 203 -75.5t68 -227.5v-362h-324v-385q0 -50 12 -70t41 -20t40 17.5t11 72.5v180h220v-145q0 -152 -68 -227.5t-203 -75.5q-56 0 -97.5 16.5t-66.5 48.5 q-27 -32 -67 -48.5t-90 -16.5q-136 0 -203.5 75.5t-67.5 227.5zM274 250q0 -50 12 -70t42 -20q29 0 40 17.5t11 72.5v790q0 55 -11 72.5t-40 17.5q-30 0 -42 -19.5t-12 -70.5v-790zM596 795h104v245q0 55 -11 72.5t-40 17.5t-41 -19.5t-12 -70.5v-245z" />
<glyph unicode="&#x178;" d="M-20 1602h260l104 -678l111 678h256l-248 -912v-690h-252v690zM119 1684v201h182v-201h-182zM389 1684v201h184v-201h-184z" />
<glyph unicode="&#x2c6;" horiz-adv-x="1024" d="M260 1352l154 223h196l154 -223h-162l-90 108l-90 -108h-162z" />
<glyph unicode="&#x2dc;" horiz-adv-x="1024" d="M258 1360v16q0 87 42.5 137t115.5 50q45 0 107.5 -31t84.5 -31q24 0 37.5 15.5t13.5 42.5v6h107v-17q0 -86 -42.5 -136t-115.5 -50q-45 0 -107.5 30.5t-84.5 30.5q-23 0 -37 -15.5t-14 -41.5v-6h-107z" />
<glyph unicode="&#x2000;" horiz-adv-x="1007" />
<glyph unicode="&#x2001;" horiz-adv-x="2015" />
<glyph unicode="&#x2002;" horiz-adv-x="1007" />
<glyph unicode="&#x2003;" horiz-adv-x="2015" />
<glyph unicode="&#x2004;" horiz-adv-x="671" />
<glyph unicode="&#x2005;" horiz-adv-x="503" />
<glyph unicode="&#x2006;" horiz-adv-x="335" />
<glyph unicode="&#x2007;" horiz-adv-x="335" />
<glyph unicode="&#x2008;" horiz-adv-x="251" />
<glyph unicode="&#x2009;" horiz-adv-x="403" />
<glyph unicode="&#x200a;" horiz-adv-x="111" />
<glyph unicode="&#x2010;" horiz-adv-x="446" d="M55 559v197h336v-197h-336z" />
<glyph unicode="&#x2011;" horiz-adv-x="446" d="M55 559v197h336v-197h-336z" />
<glyph unicode="&#x2012;" horiz-adv-x="446" d="M55 559v197h336v-197h-336z" />
<glyph unicode="&#x2013;" horiz-adv-x="1024" d="M0 586v143h1024v-143h-1024z" />
<glyph unicode="&#x2014;" horiz-adv-x="2048" d="M0 586v143h2048v-143h-2048z" />
<glyph unicode="&#x2018;" horiz-adv-x="336" d="M53 1184v178q0 76 26 133.5t83 106.5h112q-41 -31 -65 -74t-33 -102l107 -1v-241h-230z" />
<glyph unicode="&#x2019;" horiz-adv-x="336" d="M53 1360v242h230v-179q0 -76 -26.5 -134t-82.5 -105h-113q43 31 67.5 74.5t32.5 101.5h-108z" />
<glyph unicode="&#x201a;" horiz-adv-x="336" d="M53 0v242h230v-179q0 -76 -26.5 -134.5t-82.5 -106.5h-113q48 39 72.5 82.5t27.5 95.5h-108z" />
<glyph unicode="&#x201c;" horiz-adv-x="657" d="M53 1184v178q0 76 26 133.5t83 106.5h112q-41 -31 -65 -74t-33 -102l107 -1v-241h-230zM373 1184v178q0 76 26 133.5t82 106.5h113q-42 -32 -65.5 -74t-32.5 -103h106v-241h-229z" />
<glyph unicode="&#x201d;" horiz-adv-x="657" d="M53 1360v242h230v-179q0 -76 -26.5 -134t-82.5 -105h-113q43 31 67.5 74.5t32.5 101.5h-108zM373 1360v242h229v-179q0 -76 -26.5 -134t-81.5 -105h-113q42 31 66.5 74t33.5 102h-108z" />
<glyph unicode="&#x201e;" horiz-adv-x="657" d="M53 0v242h230v-179q0 -76 -26.5 -134.5t-82.5 -106.5h-113q48 39 72.5 82.5t27.5 95.5h-108zM373 0v242h229v-179q0 -76 -26 -134.5t-82 -106.5h-113q47 39 72 83t28 95h-108z" />
<glyph unicode="&#x2022;" horiz-adv-x="1208" d="M307 762q0 123 87 209t210 86q122 0 208.5 -86.5t86.5 -208.5t-87.5 -209.5t-209.5 -87.5q-123 0 -209 87t-86 210z" />
<glyph unicode="&#x2026;" horiz-adv-x="2048" d="M219 0v262h244v-262h-244zM901 0v262h244v-262h-244zM1585 0v262h244v-262h-244z" />
<glyph unicode="&#x202f;" horiz-adv-x="403" />
<glyph unicode="&#x2039;" horiz-adv-x="391" d="M53 641l99 328h172l-103 -328l103 -328h-172z" />
<glyph unicode="&#x203a;" horiz-adv-x="391" d="M68 313l102 328l-102 328h172l98 -328l-98 -328h-172z" />
<glyph unicode="&#x205f;" horiz-adv-x="503" />
<glyph unicode="&#x2122;" horiz-adv-x="1706" d="M225 1366v94h467v-94h-168v-448h-129v448h-170zM809 918v542h170l141 -360l133 360h170v-542h-114v428l-160 -428h-59l-166 428v-428h-115z" />
<glyph unicode="&#xe000;" horiz-adv-x="1280" d="M0 0v1280h1280v-1280h-1280z" />
</font>
</defs>
</svg>
